HIERARCHY
ROOT Hips
{
  OFFSET 0 0 0
  CHANNELS 6 Xposition Yposition Zposition Zrotation Yrotation Xrotation
  JOINT LeftThigh
  {
    OFFSET 8.409438 0 -5.917753
    CHANNELS 3 Zrotation Yrotation Xrotation
    JOINT LeftLeg
    {
      OFFSET 0 0 -42.358652
      CHANNELS 3 Zrotation Yrotation Xrotation
      JOINT LeftFoot
      {
        OFFSET 0 0 -39.357303
        CHANNELS 3 Zrotation Yrotation Xrotation
      }
    }
  }
  JOINT RightThigh
  {
    OFFSET -8.409438 0 -5.917753
    CHANNELS 3 Zrotation Yrotation Xrotation
    JOINT RightLeg
    {
      OFFSET 0 0 -42.358652
      CHANNELS 3 Zrotation Yrotation Xrotation
      JOINT RightFoot
      {
        OFFSET 0 0 -39.357303
        CHANNELS 3 Zrotation Yrotation Xrotation
      }
    }
  }
  JOINT SpineLow
  {
    OFFSET 0 0 4.719101
    CHANNELS 3 Zrotation Yrotation Xrotation
    JOINT SpineMid
    {
      OFFSET 0 0 12.899191
      CHANNELS 3 Zrotation Yrotation Xrotation
      JOINT Chest
      {
        OFFSET 0 0 12.899191
        CHANNELS 3 Zrotation Yrotation Xrotation
        JOINT LeftShoulder
        {
          OFFSET 7.550562 1.41573 9.438202
          CHANNELS 3 Zrotation Yrotation Xrotation
          JOINT LeftArm
          {
            OFFSET 9.155056 0 4.247191
            CHANNELS 3 Zrotation Yrotation Xrotation
            JOINT LeftForearm
            {
              OFFSET 0 0 25.771955
              CHANNELS 3 Zrotation Yrotation Xrotation
              JOINT LeftHand
              {
                OFFSET 0 0 25.197169
                CHANNELS 3 Zrotation Yrotation Xrotation
              }
            }
          }
        }
        JOINT RightShoulder
        {
          OFFSET -7.550562 1.41573 9.438202
          CHANNELS 3 Zrotation Yrotation Xrotation
          JOINT RightArm
          {
            OFFSET -9.155056 0 4.247191
            CHANNELS 3 Zrotation Yrotation Xrotation
            JOINT RightForearm
            {
              OFFSET 0 0 -25.771955
              CHANNELS 3 Zrotation Yrotation Xrotation
              JOINT RightHand
              {
                OFFSET 0 0 -25.197169
                CHANNELS 3 Zrotation Yrotation Xrotation
              }
            }
          }
        }
        JOINT Neck
        {
          OFFSET 0 0 15.101124
          CHANNELS 3 Zrotation Yrotation Xrotation
          JOINT Head
          {
            OFFSET 0 0 11.325843
            CHANNELS 3 Zrotation Yrotation Xrotation
            End Site
            {
              OFFSET 0 0 14.157303
            }
          }
        }
      }
    }
  }
}
MOTION
Frames: 7
Frame Time: 0.0
0.0  89.887642  0.0  9.173997  -54.579128  -111.668097  20.479468  -45.6839  -23.386114  16.154906  36.518608  68.767296  8.188969  7.840644  4.776373  -31.485318  16.899245  -29.574414  27.889656  5.093405  54.004701  4.333162  -3.504204  1.497849  1.277246  1.079528  1.722342  3.568137  2.857136  4.766119  3.568137  2.857136  4.766119  -10.014361  14.082946  4.302546  -93.685622  46.587097  -87.889382  -40.638463  7.306122  74.893371  81.286596  -4.217236  10.256381  -3.160952  -2.925188  18.888305  152.416419  39.859475  60.536792  -21.140557  -14.893809  -74.62452  91.745951  5.152938  -20.795945  7.73121  -1.930957  6.59325  5.819497  -1.365256  4.969845  
0.0  89.887642  0.0  8.949445  -54.671433  -111.621019  20.539414  -46.290115  -23.125035  16.557954  35.937897  68.731196  8.178997  7.892811  4.978052  -29.603173  16.831948  -28.560903  26.744339  5.604555  54.482583  3.959204  -3.416841  1.313014  1.323931  1.150111  1.827296  3.705793  3.040512  5.059298  3.705793  3.040512  5.059297  -10.490591  13.518003  3.807151  -93.833872  46.497559  -88.155202  -40.732038  7.559231  74.875961  81.084406  -4.15948  10.578122  -3.963402  -3.512087  18.247768  151.930469  39.870678  60.263748  -20.671162  -14.138341  -74.830261  92.728884  5.70777  -21.27892  7.288869  -2.177302  6.3654  5.489383  -1.557524  4.80026  
0.0  89.887642  0.0  8.862463  -54.956626  -111.610734  21.385001  -46.63859  -23.224341  16.427155  35.292505  68.478226  7.839459  7.819457  4.9674  -27.971489  16.585662  -27.727367  25.881699  6.522076  54.801906  4.250199  -3.29009  1.061722  1.364507  1.220556  1.923196  3.826923  3.224081  5.327749  3.826922  3.22408  5.327749  -10.744447  12.959076  3.210087  -94.106228  46.463637  -88.505747  -40.828616  7.748671  74.852797  80.85998  -4.126144  10.927849  -4.429317  -4.02557  17.506121  151.316976  39.844769  59.867941  -20.369287  -13.345562  -75.0985  93.816687  6.545364  -21.873338  6.996118  -2.38184  6.080211  5.270655  -1.71725  4.587492  
0.0  89.887642  0.0  8.934283  -55.307225  -111.643663  22.629812  -46.745101  -23.523738  15.837551  34.761353  67.887665  7.66873  7.827647  5.027557  -26.776602  16.17934  -27.022354  25.670511  7.447681  54.860848  4.580744  -3.403571  0.868294  1.379005  1.285625  1.983928  3.875107  3.396927  5.49867  3.875106  3.396927  5.49867  -10.728687  12.539144  2.727948  -94.400968  46.40678  -88.910609  -40.906049  7.921159  74.857197  80.686048  -4.119455  11.232476  -4.576309  -4.357165  16.897161  150.726354  39.810081  59.446236  -20.157844  -12.686907  -75.325325  95.019473  7.726051  -22.529408  6.859221  -2.517343  5.83238  5.168179  -1.823023  4.402506  
0.0  89.887642  0.0  9.089952  -55.709556  -111.672072  24.055211  -46.684715  -23.853047  15.191886  34.194155  67.243152  7.395882  7.754604  5.012997  -25.329514  15.735929  -26.395683  25.703818  8.092091  54.934807  4.670088  -3.46139  0.680333  1.379476  1.328255  1.99793  3.880847  3.512432  5.539733  3.880847  3.512432  5.539733  -10.530907  12.329444  2.47625  -94.63529  46.292203  -89.35926  -40.959514  8.167943  74.896958  80.52794  -4.140273  11.442958  -4.550284  -4.457649  16.549667  150.329501  39.754734  59.1123  -20.182455  -12.15271  -75.471979  96.104794  9.019264  -23.429765  6.813408  -2.561158  5.684155  5.133562  -1.85797  4.291606  
0.0  89.887642  0.0  9.303479  -56.154279  -111.729299  25.344594  -46.593014  -24.140749  14.280389  33.87331  66.233371  7.552072  7.86788  5.222547  -23.583408  15.32115  -25.759693  24.761653  8.395383  55.34276  4.782212  -2.643691  0.176326  1.382606  1.353411  1.991779  3.891295  3.581214  5.524709  3.891296  3.581214  5.524709  -10.293873  12.284061  2.36067  -94.746499  46.175101  -89.782543  -41.101486  8.610165  74.936718  80.302546  -4.176725  11.630387  -4.529382  -4.461212  16.380951  150.261907  39.63809  58.966377  -20.39878  -11.7446  -75.558678  96.950309  10.145633  -24.510881  6.796809  -2.531672  5.576682  5.120393  -1.837191  4.210618  
0.0  89.887642  0.0  9.482237  -56.574912  -111.711321  26.276378  -46.566624  -24.176936  13.932785  33.453409  65.531667  7.481531  7.81096  5.229455  -21.736976  14.921155  -25.164015  24.560358  8.516738  55.464551  4.044894  -2.444451  0.027771  1.378628  1.361167  1.969463  3.879915  3.604058  5.463972  3.879915  3.604058  5.463972  -10.041959  12.358922  2.357264  -94.74786  46.050054  -90.150849  -41.440415  9.349827  74.917866  79.892706  -4.16967  11.929658  -4.401527  -4.365811  16.335581  150.40351  39.529258  58.966919  -20.753809  -11.433808  -75.577525  97.481357  11.001176  -25.55647  6.797906  -2.435068  5.493564  5.120049  -1.765629  4.14726  
